# xmcd CD database file
#
# Track frame offsets:
#	150
#	30000
#	62550
#	80550
#	105825
#	134025
#	165075
#	191925
#	219304
#	241054
#
# Disc length: 3513 seconds
#
# Revision: 0
# Processed by: cddbd v1.5.2PL0 Copyright (c) Steve Scherf et al.
# Submitted via: CDex 1.70beta2
#
DISCID=740db70a
DTITLE=Peter O'Mara Trio - Crossing Over
DYEAR=2007
DGENRE=Jazz
TTITLE0=Crossing Over
TTITLE1=The Future Is Now
TTITLE2=ESP
TTITLE3=Song For B
TTITLE4=Green Dolphin St
TTITLE5=Anticipation
TTITLE6=Searching
TTITLE7=I Love You
TTITLE8=Sizzle
TTITLE9=Rovinj
EXTD=YEAR: 2007
EXTT0=
EXTT1=
EXTT2=
EXTT3=
EXTT4=
EXTT5=
EXTT6=
EXTT7=
EXTT8=
EXTT9=
PLAYORDER=
